<svg width="32" height="32" viewBox="0 0 32 32" fill="none" xmlns="http://www.w3.org/2000/svg">
    <path fill-rule="evenodd" clip-rule="evenodd"
          d="M31.334 31.999H0.667C0.490274 31.999 0.320771 31.9289 0.195713 31.804C0.0706549 31.6791 0.000264957 31.5097 0 31.333L0 0.665993C0 0.296993 0.299 -0.00100708 0.667 -0.00100708H7.334C7.702 -0.00100708 8 0.296993 8 0.665993V7.88999L10.764 1.21599C10.8321 1.05278 10.9621 0.923175 11.1255 0.855526C11.2889 0.787876 11.4725 0.787685 11.636 0.854993L17.795 3.40599C18.135 3.54699 18.297 3.93699 18.155 4.27699L15.42 10.881L20.506 5.79499C20.5676 5.73277 20.641 5.68338 20.7218 5.64967C20.8027 5.61596 20.8894 5.59861 20.977 5.59861C21.0646 5.59861 21.1513 5.61596 21.2322 5.64967C21.313 5.68338 21.3864 5.73277 21.448 5.79499L26.163 10.51C26.423 10.77 26.423 11.192 26.163 11.452L20.935 16.68L27.722 13.869C27.8853 13.8017 28.0686 13.8017 28.2318 13.8692C28.395 13.9367 28.5249 14.066 28.593 14.229L31.144 20.389C31.285 20.729 31.124 21.119 30.784 21.26L24.17 23.999H31.334C31.702 23.999 32 24.298 32 24.665V31.332C32.0001 31.4195 31.983 31.5062 31.9496 31.5872C31.9162 31.6681 31.8671 31.7416 31.8053 31.8036C31.7434 31.8655 31.67 31.9147 31.5891 31.9482C31.5082 31.9817 31.4215 31.999 31.334 31.999ZM6.667 1.33299H1.334V23.999H6.667V1.33299ZM6.667 25.333H1.334V30.666H6.667V25.333ZM16.669 4.38299L11.741 2.34199L8 11.374V25.311L16.669 4.38299ZM24.748 10.981L20.977 7.20999L14.087 14.1L8.754 26.976L24.748 10.981ZM29.657 20.283L27.616 15.355L18.471 19.144L8.617 28.998L29.657 20.283ZM30.667 25.333H20.951L8.075 30.666H30.667V25.333Z"
          fill="url(#paint0_linear)"/>
    <defs>
        <linearGradient id="paint0_linear" x1="0" y1="31.999" x2="0" y2="-0.00100708" gradientUnits="userSpaceOnUse">
            <stop stop-color="@secondary"/>
            <stop offset="1" stop-color="#00B699"/>
        </linearGradient>
    </defs>
</svg>
