<svg width="33" height="39" viewBox="0 0 33 39" fill="none" xmlns="http://www.w3.org/2000/svg">
    <g filter="url(#filter0_d)">
        <path d="M15.3553 22.432C15.3553 21.568 15.5473 20.856 15.9313 20.296C16.3313 19.72 16.9073 19.096 17.6593 18.424C18.2353 17.912 18.6593 17.472 18.9313 17.104C19.2193 16.72 19.3633 16.288 19.3633 15.808C19.3633 15.136 19.0913 14.592 18.5473 14.176C18.0033 13.76 17.2753 13.552 16.3633 13.552C14.6353 13.552 13.3313 14.168 12.4513 15.4L10.1233 13.888C10.8113 12.944 11.6993 12.224 12.7873 11.728C13.8753 11.216 15.1553 10.96 16.6273 10.96C18.4193 10.96 19.8433 11.352 20.8993 12.136C21.9713 12.904 22.5073 13.968 22.5073 15.328C22.5073 15.984 22.3953 16.56 22.1713 17.056C21.9633 17.552 21.7073 17.976 21.4033 18.328C21.0993 18.664 20.6993 19.056 20.2033 19.504C19.5953 20.048 19.1393 20.528 18.8353 20.944C18.5473 21.36 18.4033 21.856 18.4033 22.432H15.3553ZM16.8913 28.168C16.3313 28.168 15.8673 27.992 15.4993 27.64C15.1473 27.272 14.9713 26.824 14.9713 26.296C14.9713 25.768 15.1473 25.328 15.4993 24.976C15.8673 24.624 16.3313 24.448 16.8913 24.448C17.4353 24.448 17.8833 24.624 18.2353 24.976C18.6033 25.328 18.7873 25.768 18.7873 26.296C18.7873 26.824 18.6033 27.272 18.2353 27.64C17.8833 27.992 17.4353 28.168 16.8913 28.168Z"
              fill="white"/>
    </g>
    <defs>
        <filter id="filter0_d" x="0.123291" y="0.959999" width="32.384" height="37.208" filterUnits="userSpaceOnUse"
                color-interpolation-filters="sRGB">
            <feFlood flood-opacity="0" result="BackgroundImageFix"/>
            <feColorMatrix in="SourceAlpha" type="matrix" values="0 0 0 0 0 0 0 0 0 0 0 0 0 0 0 0 0 0 127 0"/>
            <feOffset/>
            <feGaussianBlur stdDeviation="5"/>
            <feColorMatrix type="matrix" values="0 0 0 0 1 0 0 0 0 1 0 0 0 0 1 0 0 0 0.25 0"/>
            <feBlend mode="normal" in2="BackgroundImageFix" result="effect1_dropShadow"/>
            <feBlend mode="normal" in="SourceGraphic" in2="effect1_dropShadow" result="shape"/>
        </filter>
    </defs>
</svg>
