<svg width="33" height="33" viewBox="0 0 33 33" fill="none" xmlns="http://www.w3.org/2000/svg">
    <path fill-rule="evenodd" clip-rule="evenodd"
          d="M17.191 8.91201C17.1181 8.91226 17.0458 8.90008 16.977 8.87601L16.934 8.86101C16.7775 8.80083 16.6506 8.68207 16.5802 8.52991C16.5097 8.37775 16.5013 8.20414 16.5567 8.04588C16.6121 7.88762 16.727 7.75716 16.8769 7.68214C17.0269 7.60712 17.2001 7.59344 17.36 7.64401L17.404 7.65901C17.5472 7.70972 17.6679 7.80936 17.7449 7.94036C17.8218 8.07137 17.85 8.22533 17.8246 8.3751C17.7991 8.52488 17.7216 8.66087 17.6057 8.75909C17.4898 8.85731 17.3429 8.91146 17.191 8.91201ZM32.689 19.69C31.9278 23.56 29.8047 27.0291 26.705 29.468C26.5705 29.5736 26.3997 29.6214 26.2299 29.6009C26.0602 29.5805 25.9056 29.4935 25.8 29.359C25.6944 29.2245 25.6466 29.0536 25.6671 28.8839C25.6875 28.7142 25.7745 28.5596 25.909 28.454C30.193 25.091 32.22 19.744 31.575 14.574C31.4919 14.9405 31.3076 15.2762 31.043 15.543L30.625 15.96C30.5485 16.0367 30.4538 16.0928 30.3498 16.1232C30.2458 16.1536 30.1358 16.1572 30.03 16.1338C29.9242 16.1103 29.826 16.0606 29.7446 15.9891C29.6631 15.9177 29.601 15.8268 29.564 15.725L28.688 13.315C28.6745 13.2781 28.6545 13.2439 28.629 13.214L27.835 12.284C27.8041 12.248 27.7657 12.2191 27.7226 12.1992C27.6794 12.1794 27.6325 12.1691 27.585 12.169H27.277L27.312 12.221C27.3944 12.345 27.4314 12.4938 27.4166 12.642C27.4019 12.7902 27.3363 12.9287 27.231 13.034C26.3739 13.8889 25.3424 14.5489 24.207 14.969L23.721 15.149C23.574 15.2032 23.4122 15.2019 23.266 15.1454C23.1199 15.0889 22.9993 14.981 22.927 14.842L21.259 11.647C21.2109 11.5551 21.1858 11.4528 21.186 11.349V10.897L20.286 10.038L19.337 9.70501C19.2537 9.67975 19.1764 9.63788 19.1097 9.58194C19.043 9.526 18.9883 9.45713 18.9489 9.37949C18.9095 9.30185 18.8863 9.21705 18.8806 9.13018C18.8748 9.04332 18.8868 8.9562 18.9156 8.87406C18.9444 8.79193 18.9896 8.71648 19.0484 8.65226C19.1072 8.58805 19.1783 8.5364 19.2576 8.50042C19.3369 8.46445 19.4226 8.44489 19.5096 8.44292C19.5967 8.44096 19.6832 8.45664 19.764 8.48901L20.844 8.86801C20.93 8.89801 21.009 8.94701 21.075 9.01101L22.275 10.155C22.403 10.277 22.475 10.446 22.475 10.622V11.191L23.807 13.743C24.5845 13.4488 25.3047 13.021 25.935 12.479L25.837 12.331C25.6761 12.3307 25.5181 12.2887 25.3782 12.2092C25.2384 12.1297 25.1215 12.0153 25.0389 11.8773C24.9564 11.7392 24.911 11.5821 24.9072 11.4213C24.9033 11.2604 24.9412 11.1013 25.017 10.9595C25.0929 10.8176 25.2042 10.6978 25.3401 10.6117C25.476 10.5256 25.6319 10.4762 25.7925 10.4682C25.9532 10.4602 26.1132 10.4939 26.257 10.5661C26.4008 10.6382 26.5234 10.7464 26.613 10.88H27.585C28.059 10.88 28.507 11.087 28.815 11.447L29.609 12.377C29.735 12.525 29.833 12.692 29.899 12.875L30.344 14.099L30.345 14.083C30.353 13.605 30.562 13.149 30.918 12.831L31.192 12.587C30.8513 11.2955 30.3405 10.055 29.673 8.89801C27.118 4.47301 22.659 1.81701 17.922 1.36601L16.068 3.69101C15.9923 3.7859 15.8915 3.85762 15.777 3.89801L11.606 5.36001L10.66 7.65301L11.622 8.99901C11.8856 8.57444 12.253 8.22398 12.6895 7.98062C13.126 7.73727 13.6173 7.60904 14.117 7.60801H14.483C14.6539 7.60801 14.8179 7.67591 14.9387 7.79678C15.0596 7.91764 15.1275 8.08157 15.1275 8.25251C15.1275 8.42344 15.0596 8.58737 14.9387 8.70824C14.8179 8.8291 14.6539 8.89701 14.483 8.89701H14.117C13.7784 8.89777 13.4483 9.00267 13.1713 9.19748C12.8944 9.3923 12.6841 9.66759 12.569 9.98601L12.554 10.03C12.861 9.99501 13.173 9.98401 13.454 9.97401C13.633 9.96801 13.803 9.96201 13.937 9.95001C14.173 9.93001 15.368 9.87101 15.728 10.632C15.8195 10.8255 15.8397 11.0451 15.785 11.252L15.798 11.261C15.997 11.394 16.322 11.61 16.558 11.724C16.6081 11.6039 16.6867 11.4979 16.787 11.415C16.94 11.293 17.145 11.208 17.474 11.131C17.5972 11.1022 17.7261 11.1098 17.845 11.153C17.986 11.206 18.201 11.264 18.428 11.325C19.105 11.508 19.871 11.716 20.278 12.147C20.73 12.626 20.996 13.314 21.231 13.921C21.319 14.151 21.403 14.367 21.487 14.546C21.534 14.646 21.58 14.75 21.627 14.855C21.863 15.381 22.107 15.925 22.506 16.186C22.596 16.245 22.88 16.289 23.068 16.318C23.544 16.39 24.137 16.481 24.37 17.022C24.608 17.574 24.224 18.13 24.097 18.313C23.809 18.731 23.435 19.079 23.074 19.415C22.241 20.191 21.896 20.598 22.093 21.233C22.327 21.989 22.548 22.703 21.69 23.636C21.643 23.6876 21.5953 23.7386 21.547 23.789C21.293 24.061 21.216 24.143 21.11 24.476C20.971 24.915 20.756 25.157 20.583 25.351C20.497 25.448 20.429 25.524 20.371 25.623C20.33 25.7146 20.3023 25.8116 20.289 25.911C20.239 26.162 20.17 26.506 19.89 26.849C19.445 27.396 18.475 28.259 17.546 28.259C17.3523 28.2604 17.1605 28.2198 16.984 28.14C16.635 27.981 16.201 27.587 15.621 25.868C15.549 25.654 15.439 25.412 15.323 25.156C14.964 24.366 14.558 23.471 14.85 22.569L14.899 22.416C15.091 21.832 15.179 21.565 14.978 21.083C14.946 21.007 14.843 20.894 14.744 20.785C14.544 20.565 14.296 20.291 14.199 19.895C14.139 19.648 14.141 19.43 14.142 19.256C14.144 18.983 14.136 18.967 14.049 18.886C13.872 18.721 13.697 18.734 13.144 18.871C12.944 18.921 12.737 18.972 12.515 18.998C11.152 19.158 9.87401 18.61 9.09901 17.532C8.29801 16.417 8.17601 14.93 8.78101 13.65C9.05601 13.068 9.44301 12.632 9.81701 12.211C9.88901 12.131 9.96101 12.049 10.033 11.966C10.116 11.87 10.236 11.7 10.363 11.52C10.653 11.108 10.896 10.777 11.145 10.55L9.40401 8.11101C9.34051 8.02219 9.30067 7.91867 9.28825 7.8102C9.27583 7.70173 9.29123 7.59188 9.33301 7.49101L10.525 4.60201C10.5595 4.51802 10.6114 4.44227 10.6772 4.37971C10.7431 4.31716 10.8214 4.26921 10.907 4.23901L15.175 2.74301L16.326 1.29901C13.7164 1.32454 11.1578 2.0249 8.89901 3.33201C8.26101 3.70001 7.66001 4.11001 7.09601 4.55201C7.61701 4.87601 8.03201 5.35701 8.27101 5.93501C8.67401 6.91501 8.46801 8.04801 7.74501 8.82301L7.03801 9.58001L5.28301 12.643C5.23737 12.7237 5.17456 12.7933 5.09901 12.847L3.96701 13.657L4.75701 14.816C4.81787 14.9054 4.85527 15.0087 4.86578 15.1163C4.87628 15.2239 4.85956 15.3325 4.81714 15.432C4.77471 15.5315 4.70796 15.6187 4.62301 15.6856C4.53806 15.7525 4.43765 15.797 4.33101 15.815C4.32601 15.815 3.78501 15.906 3.24101 15.986C2.66801 16.071 2.32101 16.118 2.08601 16.118C1.83101 16.118 1.70901 16.062 1.57501 15.94C1.52843 15.8978 1.48834 15.8489 1.45601 15.795C1.41268 15.751 1.36833 15.708 1.32301 15.666C1.29001 16.251 1.29101 16.838 1.32601 17.426L2.96901 16.893C3.06788 16.8607 3.1731 16.8529 3.27568 16.8701C3.37825 16.8873 3.47512 16.9292 3.55801 16.992L6.36501 19.127L7.82001 19.411C8.0988 19.4659 8.36276 19.5793 8.59446 19.7438C8.82615 19.9083 9.02029 20.1201 9.16406 20.3652C9.30783 20.6103 9.39794 20.8831 9.42844 21.1656C9.45894 21.4481 9.42914 21.7339 9.34101 22.004C9.29322 22.1481 9.29287 22.3037 9.34001 22.448L9.54401 23.077C9.70765 23.5827 9.66406 24.1326 9.42278 24.6061C9.18151 25.0797 8.76226 25.4382 8.25701 25.603L7.97801 25.693L7.40101 28.707C11.468 31.761 16.912 32.639 21.941 30.706C22.1005 30.6446 22.2779 30.6491 22.4341 30.7185C22.5904 30.7879 22.7126 30.9165 22.774 31.076C22.8354 31.2355 22.8309 31.4129 22.7615 31.5691C22.6921 31.7254 22.5635 31.8476 22.404 31.909C20.5237 32.6304 18.5269 32.9998 16.513 32.999C13.6153 33.0013 10.7682 32.24 8.25826 30.7918C5.74837 29.3437 3.66433 27.2598 2.21601 24.75C1.12743 22.876 0.421277 20.8047 0.138401 18.656C-0.144475 16.5074 0.00154299 14.3239 0.568006 12.232C1.12331 10.1373 2.08854 8.17344 3.40784 6.4542C4.72713 4.73496 6.3743 3.29444 8.25401 2.21601C10.128 1.12743 12.1993 0.421277 14.348 0.138401C16.4967 -0.144475 18.6801 0.00154299 20.772 0.568006C22.867 1.12309 24.831 2.08822 26.5505 3.40753C28.2699 4.72685 29.7105 6.37413 30.789 8.25401C32.7861 11.7102 33.4612 15.7737 32.689 19.69ZM11.007 12.811L10.781 13.067C10.438 13.453 10.142 13.786 9.94601 14.2C9.54201 15.057 9.61801 16.045 10.146 16.78C10.651 17.482 11.459 17.824 12.365 17.717C12.506 17.701 12.666 17.661 12.835 17.62C13.386 17.483 14.217 17.278 14.931 17.945C15.437 18.419 15.433 18.928 15.431 19.265C15.43 19.39 15.43 19.497 15.452 19.591C15.471 19.668 15.592 19.801 15.698 19.918C15.863 20.099 16.05 20.305 16.168 20.587C16.553 21.511 16.345 22.145 16.125 22.818L16.076 22.966C15.938 23.393 16.222 24.018 16.497 24.623C16.621 24.897 16.75 25.18 16.843 25.456C17.219 26.573 17.468 26.896 17.537 26.97C17.597 26.974 17.774 26.947 18.077 26.755C18.403 26.548 18.72 26.245 18.891 26.035C18.965 25.944 18.987 25.848 19.025 25.658C19.064 25.464 19.112 25.223 19.259 24.973C19.362 24.8018 19.4826 24.642 19.619 24.496C19.752 24.346 19.825 24.263 19.882 24.086C20.076 23.473 20.311 23.223 20.608 22.907L20.741 22.765C21.088 22.387 21.078 22.312 20.862 21.615C20.405 20.14 21.398 19.215 22.196 18.472C22.509 18.18 22.805 17.904 23.013 17.614L22.873 17.592C22.522 17.538 22.125 17.477 21.8 17.265C21.085 16.798 20.748 16.046 20.451 15.382C20.4076 15.2854 20.3636 15.1891 20.319 15.093C20.2143 14.8606 20.1172 14.6248 20.028 14.386C19.836 13.89 19.619 13.327 19.34 13.032C19.183 12.866 18.473 12.673 18.091 12.57L17.769 12.481C17.726 12.5619 17.6676 12.6336 17.597 12.692L17.569 12.72C17.453 12.838 17.182 13.116 16.694 13.084C16.157 13.05 15.586 12.67 15.083 12.334C14.904 12.215 14.736 12.102 14.615 12.038C14.476 11.9638 14.369 11.8412 14.3144 11.6933C14.2599 11.5455 14.2615 11.3827 14.319 11.236C14.2275 11.2287 14.1356 11.2283 14.044 11.235C13.879 11.249 13.695 11.255 13.5 11.262C13.013 11.28 12.345 11.303 12.058 11.465C11.917 11.553 11.592 12.014 11.417 12.262C11.2888 12.4512 11.152 12.6344 11.007 12.811ZM3.33201 24.106C4.11792 25.4697 5.10845 26.7048 6.26901 27.768L6.78401 25.077C6.80562 24.9636 6.85731 24.8582 6.93366 24.7716C7.01001 24.685 7.10822 24.6206 7.21801 24.585L7.85801 24.377C8.03861 24.3184 8.18854 24.1904 8.2748 24.0213C8.36107 23.8521 8.37661 23.6556 8.31801 23.475L8.11401 22.847C7.98164 22.4425 7.98234 22.0061 8.11601 21.602C8.14813 21.5057 8.15912 21.4036 8.14825 21.3026C8.13738 21.2017 8.1049 21.1043 8.05301 21.017C8.00225 20.929 7.93309 20.8529 7.85025 20.7941C7.76741 20.7352 7.67284 20.695 7.57301 20.676L5.97101 20.363C5.874 20.344 5.78265 20.3029 5.70401 20.243L3.04701 18.223L1.46001 18.738C1.73921 20.6296 2.37442 22.451 3.33201 24.106ZM6.03401 5.47001C3.61804 7.76929 2.02344 10.7979 1.49501 14.091C1.81201 14.369 2.02501 14.559 2.17801 14.702C2.21901 14.74 2.25901 14.776 2.29601 14.813C2.49301 14.791 2.78901 14.751 3.11901 14.702L2.54701 13.862C2.45188 13.7229 2.41513 13.5521 2.44468 13.3862C2.47423 13.2203 2.56771 13.0727 2.70501 12.975L4.23501 11.881L5.95601 8.87501C5.981 8.83174 6.01086 8.79148 6.04501 8.75501L6.80301 7.94301C6.98893 7.74282 7.11371 7.49362 7.16261 7.22482C7.21152 6.95603 7.18251 6.67885 7.07901 6.42601C6.98493 6.20018 6.84267 5.99763 6.66217 5.8325C6.48167 5.66738 6.26729 5.54366 6.03401 5.47001ZM22.893 24.435L22.899 24.421C22.951 24.299 22.944 24.233 22.916 24.041C22.883 23.819 22.838 23.515 22.958 23.132C23.152 22.513 23.661 22.267 24.032 22.088C24.187 22.013 24.348 21.936 24.41 21.864C24.521 21.736 24.628 21.504 24.732 21.279C24.793 21.146 24.857 21.008 24.928 20.878C24.9891 20.764 25.0831 20.6712 25.1978 20.6115C25.3125 20.5518 25.4426 20.528 25.571 20.5434C25.6993 20.5587 25.8201 20.6124 25.9175 20.6974C26.015 20.7824 26.0845 20.8949 26.117 21.02L26.427 22.189C26.4579 22.3032 26.4562 22.4238 26.422 22.537L25.664 25.093C25.26 26.453 24.766 27.137 24.108 27.245C24.0515 27.2544 23.9943 27.2591 23.937 27.259C23.625 27.259 23.223 27.119 22.841 26.575C22.306 25.814 22.688 24.917 22.893 24.435ZM23.896 25.834L23.935 25.888C24.04 25.743 24.222 25.42 24.428 24.726L24.916 23.082C24.8104 23.1421 24.7023 23.1978 24.592 23.249C24.364 23.359 24.213 23.437 24.188 23.517C24.157 23.615 24.166 23.686 24.191 23.852C24.229 24.111 24.281 24.465 24.085 24.925L24.079 24.941C23.957 25.227 23.773 25.659 23.896 25.834ZM24.08 29.687L24.105 29.673C24.1782 29.6305 24.2591 29.6029 24.343 29.5916C24.4269 29.5804 24.5122 29.5858 24.594 29.6075C24.6758 29.6293 24.7525 29.6669 24.8198 29.7183C24.887 29.7697 24.9435 29.8338 24.986 29.907C25.0285 29.9802 25.0561 30.0611 25.0674 30.145C25.0786 30.2289 25.0732 30.3142 25.0515 30.396C25.0297 30.4778 24.9921 30.5545 24.9407 30.6218C24.8893 30.689 24.8252 30.7455 24.752 30.788L24.727 30.802C24.5796 30.8804 24.4076 30.8986 24.247 30.8528C24.0865 30.807 23.95 30.7007 23.8662 30.5563C23.7824 30.4119 23.7579 30.2406 23.7978 30.0785C23.8376 29.9164 23.9388 29.7761 24.08 29.687Z"
          fill="url(#paint0_linear)"/>
    <defs>
        <linearGradient id="paint0_linear" x1="-0.00183105" y1="32.999" x2="-0.00183105" y2="-0.00183105"
                        gradientUnits="userSpaceOnUse">
            <stop stop-color="@secondary"/>
            <stop offset="1" stop-color="#00B699"/>
        </linearGradient>
    </defs>
</svg>
