<svg width="31" height="19" viewBox="0 0 31 19" fill="none" xmlns="http://www.w3.org/2000/svg">
    <path d="M26.6799 11.8832C27.7082 12.8872 28.7935 13.8317 29.7158 14.9369C30.1233 15.4281 30.509 15.9349 30.8041 16.5049C31.2222 17.3151 30.8435 18.2067 30.117 18.2551L25.6008 18.253C24.436 18.3497 23.5068 17.8808 22.7255 17.0843C22.1002 16.4475 21.5211 15.7696 20.9199 15.1112C20.6734 14.8422 20.4154 14.589 20.1072 14.3888C19.4908 13.9886 18.9556 14.1111 18.6033 14.7541C18.2445 15.4082 18.163 16.1323 18.1278 16.8612C18.0794 17.9246 17.758 18.2042 16.6897 18.2529C14.4068 18.3606 12.2402 18.0152 10.2274 16.8635C8.45294 15.8483 7.07695 14.415 5.87921 12.7924C3.54737 9.63284 1.76154 6.16096 0.156563 2.59185C-0.20472 1.78772 0.0595062 1.35608 0.94676 1.34076C2.42005 1.31213 3.89315 1.31418 5.3682 1.33871C5.967 1.34749 6.3634 1.69091 6.59463 2.2566C7.39173 4.21656 8.36708 6.08128 9.59134 7.80971C9.91739 8.26987 10.2498 8.73009 10.7232 9.05395C11.2469 9.41257 11.6457 9.29372 11.8921 8.71029C12.0484 8.34035 12.1169 7.94189 12.1521 7.54573C12.2688 6.18264 12.2842 4.82185 12.0795 3.46354C11.9538 2.61582 11.4763 2.06702 10.6304 1.90664C10.1988 1.82484 10.263 1.66421 10.4721 1.41784C10.835 0.992923 11.1765 0.728394 11.8571 0.728394H16.961C17.7646 0.886966 17.943 1.24795 18.053 2.05643L18.0574 7.72586C18.0486 8.03882 18.2137 8.96767 18.7775 9.1748C19.2286 9.3223 19.5261 8.96132 19.7968 8.67523C21.0188 7.37826 21.891 5.84545 22.6702 4.25828C23.016 3.56035 23.3133 2.83561 23.6015 2.11141C23.815 1.57405 24.15 1.30964 24.7552 1.32133L29.6675 1.32569C29.8132 1.32569 29.9606 1.32781 30.1017 1.35197C30.9294 1.49304 31.1563 1.84912 30.9006 2.65742C30.4978 3.92557 29.714 4.98242 28.9476 6.04411C28.1284 7.1776 27.2523 8.27235 26.4399 9.41257C25.6935 10.454 25.7528 10.9788 26.6799 11.8832Z"
          fill="white"/>
</svg>
