<svg width="68" height="68" viewBox="0 0 68 68" fill="none" xmlns="http://www.w3.org/2000/svg">
    <path d="M66.0742 29.4336H64.3652V17.8945C64.3652 15.1875 62.2324 13.0547 59.6621 13.0547H58.377V5.34375C58.377 2.63672 56.3809 0.503906 53.9609 0.503906C53.9609 0.503906 53.8242 0.503906 53.6738 0.503906L4.91992 13.041C4.90625 13.041 4.87891 13.0547 4.86523 13.0547C2.45898 13.2461 0.503906 15.3105 0.503906 17.8945V62.6562C0.503906 65.3633 2.63672 67.4961 5.20703 67.4961H59.6621C62.3691 67.4961 64.502 65.3633 64.502 62.6562V50.8164H66.0742C66.9355 50.8164 67.4961 50.2422 67.4961 49.3945V30.8691C67.4961 30.0078 66.7852 29.4336 66.0742 29.4336ZM54.2344 3.21094C54.9453 3.34766 55.6562 4.20898 55.6562 5.34375V13.041H16.3223L54.2344 3.21094ZM61.6582 62.6562C61.6582 63.791 60.7969 64.7891 59.6621 64.7891H5.20703C4.07227 64.7891 3.21094 63.791 3.21094 62.6562V17.8945C3.21094 16.7598 4.07227 15.7617 5.20703 15.7617H59.5117C60.6465 15.7617 61.5078 16.7598 61.5078 17.8945V29.4336H47.3984C41.4102 29.4336 36.707 34.1367 36.707 40.125C36.707 46.1133 41.5469 50.8164 47.3984 50.8164H61.6582V62.6562ZM64.6387 48.1094H47.3984C43.1191 48.1094 39.5645 44.541 39.5645 40.2754C39.5645 36.0098 43.1328 32.4414 47.3984 32.4414H64.6387V48.1094Z"
          fill="white"/>
    <path d="M45.8262 40.4121C45.8262 41.2734 46.5371 41.834 47.248 41.834H48.5332C49.2441 41.834 49.9551 41.2598 49.9551 40.4121C49.9551 39.5508 49.2441 38.9902 48.5332 38.9902H47.2617C46.4004 38.9902 45.8262 39.5645 45.8262 40.4121Z"
          fill="white"/>
</svg>
