<svg width="75" height="73" viewBox="0 0 75 73" fill="none" xmlns="http://www.w3.org/2000/svg">
    <path d="M37.2929 0C43.1516 0 48.71 1.33333 53.7425 3.7037C54.5312 4.03704 55.3199 4.48148 56.1086 4.88889L52.691 7.88889L47.5457 2.66667L38.6824 10.3333L33.4621 4.81481L17.1627 19.1111L27.6033 30.3333L23.5472 33.8148L33.8377 45.037L29.7816 48.5185L44.5037 64.4815L53.2167 56.6667L60.8031 65.037C59.3009 66.1481 57.6484 67.2593 55.8832 68.2593C50.4376 71.2593 44.1657 73 37.4431 73C16.7871 73 -0.00058649 56.6296 -0.00058649 36.5185C-0.150812 16.4444 16.6369 0 37.2929 0ZM30.42 34.2222L39.3585 26.4074L47.3579 35.1111L38.4195 42.9259L30.42 34.2222ZM36.8046 49.2593L45.6679 41.3704L53.7425 50.0741L44.8041 57.8889L36.8046 49.2593ZM24.073 19.3704L33.0114 11.5556L41.0109 20.2593L32.0725 28.0741L24.073 19.3704ZM40.4476 15.1852L47.0951 9.33333L53.1041 15.8148L46.4566 21.7407L40.4476 15.1852ZM52.3154 42.037L58.9629 36.1852L64.9719 42.7407L58.3244 48.5926L52.3154 42.037ZM58.1742 55.1852L64.8216 49.3333L70.8307 55.8148L64.1832 61.7407L58.1742 55.1852ZM60.8782 25.1111L65.3099 21.2222L69.3284 25.5556L64.8968 29.4074L60.8782 25.1111ZM55.1697 12.2222L59.6013 8.25926L63.6198 12.6296L59.1882 16.5185L55.1697 12.2222ZM66.5117 38L70.9433 34.1111L74.9994 38.4444L70.4927 42.3333L66.5117 38ZM46.6068 28.2963L53.2543 22.4444L59.2633 28.9259L52.6158 34.7778L46.6068 28.2963Z"
          fill="#036CB5"/>
</svg>
