<svg width="33" height="31" viewBox="0 0 33 31" fill="none" xmlns="http://www.w3.org/2000/svg">
    <path fill-rule="evenodd" clip-rule="evenodd"
          d="M32.45 12.178H31.9V1.65999C31.9 0.773993 31.185 -0.00100708 30.25 -0.00100708H13.805L13.777 -7.08003e-06L13.75 -0.00100708H2.75C1.87 -0.00100708 1.1 0.718993 1.1 1.65999V12.178H0.55C0.22 12.178 0 12.399 0 12.731V18.267C0 18.599 0.22 18.821 0.55 18.821H1.1V29.338C1.1 30.224 1.815 30.999 2.75 30.999H30.25C31.13 30.999 31.9 30.224 31.9 29.338V18.821H32.45C32.78 18.821 33 18.599 33 18.267V12.731C33 12.399 32.78 12.178 32.45 12.178ZM30.8 1.65999V12.178H25.822C25.767 11.69 25.675 11.227 25.52 10.96C24.97 9.96399 23.98 9.35399 22.77 9.35399H22.715C21.627 9.35399 20.658 10.09 19.855 10.942V1.10599H30.25C30.525 1.10599 30.8 1.32799 30.8 1.65999ZM23.807 19.488C23.791 19.506 23.776 19.524 23.76 19.54C23.7411 19.5591 23.7214 19.5774 23.701 19.595L23.659 19.631L23.648 19.639C23.235 19.961 22.637 19.986 22.084 19.875C21.7192 19.7903 21.3693 19.6511 21.046 19.462C20.228 18.957 19.485 18.097 19.418 17.043C19.5112 16.8667 19.5881 16.6822 19.648 16.492L21.12 17.603C21.23 17.658 21.34 17.714 21.45 17.714C21.5363 17.7181 21.6221 17.6999 21.6993 17.661C21.7764 17.6221 21.8421 17.5638 21.89 17.492C22.055 17.271 22 16.883 21.78 16.717L20.166 15.499L21.78 14.281C22 14.115 22.055 13.728 21.89 13.506C21.725 13.285 21.34 13.229 21.12 13.396L19.648 14.507C19.5476 14.1863 19.3989 13.8828 19.207 13.607C19.267 13.53 19.333 13.442 19.415 13.34C19.525 13.229 19.635 13.064 19.745 12.898L19.774 12.838C20.286 12.148 21.573 10.573 22.715 10.573C23.304 10.573 23.781 10.743 24.126 11.082C24.24 11.206 24.338 11.349 24.42 11.513C24.585 11.845 24.695 13.34 24.64 13.894V14.669C24.64 15.503 24.614 17.089 24.333 18.274C24.144 18.951 23.957 19.309 23.807 19.488ZM18.967 22.308L18.859 22.477C18.8345 22.4956 18.8117 22.5163 18.791 22.539L17.276 18.727C17.7251 18.6156 18.1459 18.4112 18.511 18.127C18.635 18.456 18.8 18.765 19.006 19.053C19.28 19.455 19.618 19.806 19.985 20.095L20.708 21.695L19.8 21.533C19.58 21.533 19.36 21.644 19.25 21.81L18.967 22.308ZM13.475 21.81C13.4185 21.7297 13.3447 21.6632 13.259 21.6152C13.1733 21.5673 13.078 21.5392 12.98 21.533H12.925L11.99 21.699L12.595 20.371L12.597 20.369C13.4647 19.8603 14.1366 19.075 14.505 18.139C14.854 18.408 15.258 18.609 15.697 18.72L13.934 22.58L13.475 21.81ZM9.185 19.54C9.025 19.38 8.764 19.012 8.597 18.238C8.59413 18.2102 8.58843 18.1827 8.58 18.156C8.305 16.994 8.25 15.61 8.25 14.669V13.894C8.25 13.728 8.25 13.285 8.305 12.786C8.30483 12.771 8.30417 12.756 8.303 12.741L8.305 12.731C8.36 11.956 8.47 11.624 8.525 11.513C8.848 10.863 9.435 10.532 10.234 10.519L10.285 10.517C10.323 10.517 10.361 10.519 10.4 10.522C11.581 10.628 12.884 12.308 13.31 12.898C13.3266 12.922 13.3461 12.9438 13.368 12.963C13.469 13.099 13.56 13.227 13.64 13.34C13.695 13.396 13.75 13.506 13.805 13.561C13.6042 13.8496 13.4497 14.1678 13.347 14.504L11.88 13.396C11.66 13.229 11.275 13.285 11.11 13.506C10.945 13.728 11 14.115 11.22 14.281L12.833 15.499L11.22 16.717C11 16.883 10.945 17.27 11.11 17.492C11.1579 17.5638 11.2236 17.6221 11.3007 17.661C11.3779 17.6999 11.4637 17.7181 11.55 17.714C11.66 17.714 11.77 17.658 11.88 17.603L13.328 16.509C13.37 16.679 13.419 16.843 13.475 16.994C13.42 18.267 12.43 19.263 11.385 19.706C11.1946 19.7948 10.9955 19.8639 10.791 19.912C10.196 20.023 9.595 19.953 9.185 19.54ZM18.433 14.446H18.434L18.462 14.502C18.6363 14.8553 18.7166 15.2476 18.695 15.641L18.694 15.649C18.6775 15.8749 18.6227 16.0964 18.532 16.304C18.4147 16.3511 18.3182 16.4388 18.26 16.551C17.875 17.215 17.16 17.658 16.39 17.658C16.082 17.658 15.783 17.595 15.51 17.475C15.1737 17.3017 14.8866 17.0466 14.675 16.733C14.6661 16.6887 14.6509 16.646 14.63 16.606C14.4414 16.3201 14.3295 15.9906 14.305 15.649V15.641C14.298 15.5592 14.297 15.477 14.302 15.395C14.329 14.877 14.551 14.371 15.015 14.06C15.0775 13.9742 15.1177 13.8742 15.132 13.769C15.5191 13.4557 16.002 13.2849 16.5 13.285C17.332 13.285 18.059 13.756 18.433 14.446ZM18.7 12.333L18.48 12.621L18.419 12.722C18.396 12.736 18.378 12.747 18.372 12.769C17.8935 12.4336 17.3336 12.233 16.751 12.188H16.74L16.64 12.181C16.5133 12.176 16.3864 12.1784 16.26 12.188H16.248C15.7744 12.2252 15.3145 12.3648 14.9 12.597C14.8119 12.6436 14.7255 12.6933 14.641 12.746L14.63 12.731L14.3 12.301V1.10599H18.7V12.333ZM2.2 1.65999C2.2 1.38299 2.475 1.10599 2.75 1.10599H13.255V11.015C12.375 10.13 11.385 9.40999 10.285 9.40999C9.02 9.46499 8.085 10.019 7.535 11.015C7.48 11.126 7.37 11.347 7.26 12.178H2.2V1.65999ZM1.1 13.285H7.15V14.669C7.205 15.444 7.205 16.606 7.37 17.714H1.1V13.285ZM2.2 29.338V18.821H7.608C7.789 19.46 8.048 20.001 8.415 20.37C8.91 20.814 9.57 21.09 10.34 21.09C10.571 21.09 10.802 21.065 11.038 21.017L10.505 22.197C10.395 22.363 10.45 22.585 10.56 22.751C10.725 22.917 10.89 23.028 11.11 22.973L12.705 22.695L13.2 23.581V29.892H2.75C2.60368 29.8912 2.46364 29.8324 2.36055 29.7286C2.25747 29.6248 2.19973 29.4843 2.2 29.338ZM14.355 24.246C14.41 24.19 14.465 24.135 14.52 24.024L16.5 19.651L18.205 24.024L18.209 24.035C18.267 24.197 18.429 24.356 18.645 24.356H18.7V29.892H14.355V24.246ZM30.8 29.338C30.8 29.615 30.58 29.892 30.25 29.892H19.8V23.065L20.02 22.696L21.395 22.917C21.435 22.917 21.475 22.914 21.514 22.91L21.56 22.917C21.78 22.917 22 22.862 22.11 22.696C22.22 22.53 22.275 22.308 22.165 22.142L21.589 20.929C21.948 21.036 22.317 21.09 22.66 21.09C23.43 21.09 24.09 20.814 24.695 20.26C25.04 19.912 25.283 19.412 25.456 18.821H30.8V29.338ZM31.9 17.714H25.692C25.839 16.737 25.879 15.644 25.905 14.613V13.949C25.905 13.823 25.905 13.582 25.896 13.285H31.9V17.714Z"
          fill="url(#paint0_linear)"/>
    <defs>
        <linearGradient id="paint0_linear" x1="0" y1="30.999" x2="0" y2="-0.00100708" gradientUnits="userSpaceOnUse">
            <stop stop-color="@secondary"/>
            <stop offset="1" stop-color="#00B699"/>
        </linearGradient>
    </defs>
</svg>
