<svg width="42" height="42" viewBox="0 0 42 42" fill="none" xmlns="http://www.w3.org/2000/svg">
    <g clip-path="url(#clip0)">
        <path fill-rule="evenodd" clip-rule="evenodd"
              d="M40.783 28.85C38.96 30.804 35.361 35.156 35.325 35.2C35.2699 35.2661 35.2018 35.3202 35.125 35.359L21.959 41.934C21.8795 41.9745 21.7921 41.997 21.7029 42C21.6138 42.0029 21.525 41.9862 21.443 41.951L9.05103 36.739H0.617035C0.457825 36.7326 0.30727 36.6648 0.196891 36.5499C0.0865119 36.435 0.0248693 36.2818 0.0248693 36.1225C0.0248693 35.9632 0.0865119 35.81 0.196891 35.6951C0.30727 35.5802 0.457825 35.5124 0.617035 35.506H9.17504C9.25804 35.506 9.33904 35.523 9.41504 35.555L21.661 40.705L34.456 34.314C35.021 33.632 38.165 29.847 39.88 28.01C40.229 27.636 41.3 26.322 40.438 25.119C39.877 24.336 38.491 23.754 37.714 24.575C35.846 26.551 31.418 31.861 31.373 31.914C31.2704 32.0374 31.1237 32.116 30.964 32.133L29.157 32.323C29.1291 32.9453 28.9229 33.5465 28.563 34.055C28.1635 34.6096 27.6009 35.0257 26.9535 35.2451C26.3062 35.4646 25.6064 35.4764 24.952 35.279L18.227 33.429C18.149 33.4075 18.076 33.3708 18.0122 33.321C17.9484 33.2713 17.895 33.2094 17.855 33.139C17.8151 33.0687 17.7894 32.9911 17.7795 32.9108C17.7695 32.8305 17.7755 32.749 17.797 32.671C17.8186 32.593 17.8553 32.52 17.905 32.4562C17.9548 32.3923 18.0166 32.3389 18.087 32.299C18.1574 32.2591 18.2349 32.2334 18.3152 32.2234C18.3955 32.2135 18.477 32.2195 18.555 32.241L25.289 34.093C25.83 34.241 26.412 34.207 26.905 33.928C27.346 33.679 27.683 33.26 27.834 32.777C27.9137 32.5245 27.9425 32.2587 27.9186 31.995C27.8948 31.7314 27.8188 31.4751 27.695 31.241C27.5724 31.0064 27.4046 30.7985 27.2012 30.6291C26.9978 30.4597 26.7629 30.3322 26.51 30.254C26.4892 30.248 26.4689 30.2406 26.449 30.232C26.341 30.185 15.578 25.561 11.15 25.561C7.57703 25.561 5.03403 26.573 3.52903 27.421C1.89703 28.342 1.09803 29.277 1.09003 29.286C0.984402 29.4091 0.834528 29.4857 0.672859 29.4991C0.51119 29.5126 0.350735 29.4618 0.226228 29.3578C0.101721 29.2538 0.0231813 29.1049 0.00761098 28.9435C-0.00795932 28.782 0.0406927 28.6209 0.143035 28.495C0.285035 28.325 3.70503 24.328 11.15 24.328C15.759 24.328 26.156 28.764 26.91 29.088C27.143 29.163 27.364 29.263 27.569 29.385C29.147 27.519 31.157 25.175 32.291 23.975C32.813 23.424 33.545 23.151 34.354 23.206C35.1353 23.2701 35.8727 23.5936 36.449 24.125C36.579 23.982 36.703 23.85 36.817 23.729C37.339 23.178 38.071 22.905 38.88 22.959C39.871 23.026 40.852 23.579 41.441 24.401C42.377 25.707 42.125 27.412 40.783 28.85ZM34.271 24.436C33.964 24.415 33.526 24.465 33.189 24.822C32.02 26.058 29.836 28.616 28.492 30.205C28.699 30.477 28.863 30.78 28.977 31.102L30.585 30.933C31.251 30.137 33.772 27.13 35.624 25.042C35.251 24.697 34.755 24.469 34.271 24.436ZM26.25 11.136C26.249 11.6484 26.0448 12.1395 25.6823 12.5017C25.3198 12.8638 24.8285 13.0675 24.316 13.068C23.8036 13.0675 23.3123 12.8638 22.9498 12.5017C22.5873 12.1395 22.3831 11.6484 22.382 11.136C22.3982 10.6338 22.609 10.1576 22.97 9.80813C23.3309 9.45862 23.8136 9.2632 24.316 9.2632C24.8185 9.2632 25.3012 9.45862 25.6621 9.80813C26.023 10.1576 26.2339 10.6338 26.25 11.136ZM24.316 10.438C24.1306 10.438 23.9529 10.5116 23.8218 10.6427C23.6907 10.7738 23.617 10.9516 23.617 11.137C23.617 11.3224 23.6907 11.5002 23.8218 11.6313C23.9529 11.7623 24.1306 11.836 24.316 11.836C24.5014 11.836 24.6792 11.7623 24.8103 11.6313C24.9414 11.5002 25.015 11.3224 25.015 11.137C25.015 10.9516 24.9414 10.7738 24.8103 10.6427C24.6792 10.5116 24.5014 10.438 24.316 10.438ZM15.799 5.87599C15.799 4.81099 16.667 3.94399 17.733 3.94399C18.799 3.94399 19.667 4.81099 19.667 5.87599C19.666 6.38841 19.4618 6.87951 19.0993 7.24166C18.7368 7.60381 18.2455 7.80746 17.733 7.80799C17.2206 7.80746 16.7293 7.60381 16.3668 7.24166C16.0043 6.87951 15.8001 6.38841 15.799 5.87599ZM18.433 5.87599C18.4262 5.69505 18.3495 5.5238 18.2191 5.39821C18.0886 5.27261 17.9146 5.20245 17.7335 5.20245C17.5525 5.20245 17.3784 5.27261 17.248 5.39821C17.1176 5.5238 17.0409 5.69505 17.034 5.87599C17.0409 6.05693 17.1176 6.22819 17.248 6.35378C17.3784 6.47937 17.5525 6.54954 17.7335 6.54954C17.9146 6.54954 18.0886 6.47937 18.2191 6.35378C18.3495 6.22819 18.4262 6.05693 18.433 5.87599ZM25.411 4.12499C25.4684 4.18221 25.5138 4.25017 25.5449 4.32498C25.5759 4.3998 25.5919 4.48 25.5919 4.56099C25.5919 4.64199 25.5759 4.72219 25.5449 4.797C25.5138 4.87182 25.4684 4.93978 25.411 4.99699L17.511 12.887C17.454 12.9445 17.386 12.9902 17.3112 13.0212C17.2363 13.0523 17.1561 13.0682 17.075 13.068C16.535 13.068 16.258 12.395 16.638 12.016L24.538 4.12499C24.5953 4.06763 24.6634 4.02213 24.7383 3.99109C24.8132 3.96004 24.8935 3.94406 24.9745 3.94406C25.0556 3.94406 25.1359 3.96004 25.2108 3.99109C25.2857 4.02213 25.3537 4.06763 25.411 4.12499ZM21.426 25.413C21.3136 25.5075 21.1714 25.5593 21.0245 25.5593C20.8777 25.5593 20.7355 25.5075 20.623 25.413L6.79903 13.577C6.37303 13.212 6.64103 12.492 7.20003 12.492H12.508V0.615993C12.508 0.274993 12.784 -0.00100708 13.125 -0.00100708H28.924C29.265 -0.00100708 29.541 0.274993 29.541 0.615993V2.67099C29.541 2.83463 29.476 2.99157 29.3603 3.10728C29.2446 3.22299 29.0877 3.28799 28.924 3.28799C28.7604 3.28799 28.6035 3.22299 28.4877 3.10728C28.372 2.99157 28.307 2.83463 28.307 2.67099V1.23199H13.742V13.109C13.742 13.449 13.466 13.725 13.125 13.725H8.86904L21.025 24.133L33.18 13.725H28.924C28.8431 13.7251 28.7628 13.7093 28.688 13.6784C28.6131 13.6475 28.5451 13.6021 28.4878 13.5449C28.4305 13.4877 28.385 13.4198 28.354 13.345C28.323 13.2702 28.307 13.19 28.307 13.109V5.50599C28.307 5.34235 28.372 5.18542 28.4877 5.06971C28.6035 4.954 28.7604 4.88899 28.924 4.88899C29.0877 4.88899 29.2446 4.954 29.3603 5.06971C29.476 5.18542 29.541 5.34235 29.541 5.50599V12.492H34.849C35.409 12.492 35.676 13.212 35.251 13.577L21.426 25.413Z"
              fill="url(#paint0_linear)"/>
    </g>
    <defs>
        <linearGradient id="paint0_linear" x1="0.00476074" y1="42.0003" x2="0.00476074" y2="-0.00100708"
                        gradientUnits="userSpaceOnUse">
            <stop stop-color="@secondary"/>
            <stop offset="1" stop-color="#00B699"/>
        </linearGradient>
        <clipPath id="clip0">
            <rect width="42" height="42" fill="white"/>
        </clipPath>
    </defs>
</svg>
