<svg width="166" height="54" viewBox="0 0 166 54" fill="none" xmlns="http://www.w3.org/2000/svg">
    <path d="M82.1994 0.954696L71.109 53.105H57.7056L68.796 0.954696H82.1994ZM138.6 34.6674L145.658 15.0961L149.75 34.6674H138.6ZM153.605 53.105H166L155.147 0.954696H143.701C141.15 0.954696 138.956 2.44641 138.007 4.77348L117.902 53.105H131.958L134.745 45.2884H151.944L153.605 53.105ZM118.614 36.0994C118.673 22.316 99.6949 21.6 99.8135 15.3945C99.8728 13.5448 101.652 11.516 105.507 11.0387C107.405 10.8 112.742 10.5613 118.732 13.3657L121.105 2.32707C117.902 1.1337 113.751 0 108.532 0C95.2469 0 85.9357 7.10055 85.8764 17.2442C85.8171 24.7624 92.5188 28.9392 97.6192 31.4453C102.838 34.0111 104.617 35.6221 104.558 37.9492C104.499 41.4696 100.407 43.021 96.5516 43.0807C89.7906 43.2 85.8764 41.2309 82.7924 39.7989L80.3608 51.2553C83.5041 52.6873 89.2569 53.9403 95.3062 54C109.303 53.9403 118.554 46.9591 118.614 36.0994ZM63.0432 0.954696L41.2776 53.105H27.1033L16.428 11.4564C15.7756 8.89061 15.2419 7.93591 13.2254 6.86188C10.0229 5.07182 4.68525 3.46077 0 2.44641L0.296534 0.954696H23.1297C26.0357 0.954696 28.6452 2.92376 29.2976 6.26519L34.9911 36.4575L48.9282 0.954696H63.0432Z"
          fill="url(#paint0_linear)"/>
    <defs>
        <linearGradient id="paint0_linear" x1="166.002" y1="26.9868" x2="-0.00117746" y2="26.9868"
                        gradientUnits="userSpaceOnUse">
            <stop stop-color="#024DA0"/>
            <stop offset="1" stop-color="#231F5E"/>
        </linearGradient>
    </defs>
</svg>
