<svg width="86" height="70" viewBox="0 0 86 70" fill="none" xmlns="http://www.w3.org/2000/svg">
    <path d="M85.7649 25.2689L77.8471 10.3513C77.5784 9.84527 77.1208 9.49706 76.6021 9.35414C76.5986 9.35326 76.5965 9.35204 76.5929 9.35099L43.6077 0.447444C43.2648 0.355139 42.9035 0.354613 42.5603 0.446743L9.40935 9.35028C9.40568 9.35134 9.40322 9.35256 9.39937 9.35361C8.87987 9.49619 8.42149 9.84474 8.15263 10.3513L0.23503 25.2689C-0.0229702 25.7551 -0.0707868 26.3257 0.102614 26.848C0.276016 27.3704 0.655747 27.7991 1.15336 28.0342L8.04229 31.2906V51.6686C8.04229 52.4417 8.48472 53.1467 9.18113 53.4825L42.2074 69.4217C42.4848 69.5557 42.7842 69.6219 43.0826 69.6219C43.3788 69.6219 43.6733 69.5538 43.9456 69.4245C43.95 69.4235 43.9542 69.4237 43.9582 69.4216L76.9845 53.4823C77.6809 53.1464 78.1233 52.4415 78.1233 51.6684V31.2924C78.1233 31.2661 78.1204 31.2404 78.1195 31.2144L84.8467 28.0344C85.3444 27.7991 85.7241 27.3705 85.8975 26.8482C86.0707 26.3256 86.0229 25.7553 85.7649 25.2689ZM43.0814 4.47806L69.4571 11.5975L43 21.4029L16.5554 11.6024L43.0814 4.47806ZM10.8847 13.7969L40.2914 24.6954L33.8148 39.0178L4.78269 25.2939L10.8847 13.7969ZM12.0708 50.4042V33.1951L33.9451 43.5352C34.2169 43.6638 34.5112 43.7286 34.806 43.7286C35.0409 43.7286 35.2763 43.6876 35.501 43.6049C36.008 43.4185 36.4188 43.0364 36.6414 42.5442L41.0686 32.7538V64.3992L12.0708 50.4042ZM74.0947 50.4042L45.0969 64.3992V33.1201L49.3585 42.5442C49.5812 43.0364 49.9919 43.4184 50.499 43.6049C50.7237 43.6876 50.9591 43.7286 51.194 43.7286C51.4889 43.7286 51.783 43.6639 52.0548 43.5352L74.0947 33.1168V50.4042ZM52.1852 39.0177L45.7084 24.6952L75.1151 13.7967L81.2172 25.2937L52.1852 39.0177Z"
          fill="white"/>
</svg>
