<svg width="86" height="86" viewBox="0 0 86 86" fill="none" xmlns="http://www.w3.org/2000/svg">
    <path d="M74.3524 25.2215V25.2267C74.9193 24.0301 75.25 22.7808 75.25 21.5V16.125C75.25 7.22266 60.8099 0 43 0C25.1901 0 10.75 7.22266 10.75 16.125C10.75 15.6841 10.813 15.2536 10.8812 14.8232C4.22021 17.7733 0 22.0775 0 26.875V32.25C0 37.2367 4.53516 41.693 11.6476 44.6483C11.0807 45.8451 10.75 47.0942 10.75 48.375V53.75C10.75 55.6396 11.4325 57.4401 12.6292 59.125C11.4325 60.8099 10.75 62.6104 10.75 64.5V69.875C10.75 78.7773 25.1901 86 43 86C60.8099 86 75.25 78.7773 75.25 69.875V64.5C75.25 62.5788 74.5413 60.7469 73.3131 59.041C73.3026 59.0516 73.2922 59.0672 73.2816 59.0778C74.1844 57.797 74.8931 56.4637 75.1188 55.0518C81.7798 52.0965 86 47.7977 86 43V37.625C86 32.6385 81.4648 28.1768 74.3524 25.2215ZM43 2.6875C60.4216 2.6875 72.5625 9.76839 72.5625 16.125C72.5625 22.4764 60.4216 29.5625 43 29.5625C25.5784 29.5625 13.4375 22.4764 13.4375 16.125C13.4375 9.76839 25.5784 2.6875 43 2.6875ZM2.6875 26.875C2.6875 23.736 5.66374 20.4344 10.75 17.8835V21.5C10.75 30.4023 25.1901 37.625 43 37.625C45.6613 37.625 48.2332 37.4464 50.7056 37.1421C45.7767 39.0369 39.5146 40.3125 32.25 40.3125C14.8284 40.3125 2.6875 33.2264 2.6875 26.875ZM72.5625 64.5C72.5625 70.8514 60.4216 77.9375 43 77.9375C25.5784 77.9375 13.4375 70.8514 13.4375 64.5C13.4375 63.445 13.889 62.3742 14.5241 61.3138C14.5189 61.3086 14.5083 61.298 14.5031 61.2876C19.9149 66.3949 30.6439 69.875 43 69.875C55.3719 69.875 66.0485 66.3687 71.4497 61.2508C71.4445 61.256 71.4445 61.256 71.4391 61.2614C72.1006 62.3374 72.5625 63.424 72.5625 64.5ZM61.4661 58.6421C56.5321 60.5423 50.2699 61.8125 43 61.8125C25.5784 61.8125 13.4375 54.7262 13.4375 48.375C13.4375 47.4616 13.7524 46.5378 14.2301 45.6245C16.8652 46.5116 19.7783 47.2098 22.8911 47.6769C26.9012 54.3011 39.1945 59.125 53.75 59.125C56.4217 59.125 59.0042 58.9464 61.4871 58.6369C61.4818 58.6369 61.4766 58.6421 61.4661 58.6421ZM53.75 51.0625C46.8527 51.0625 40.8374 49.9287 36.0187 48.1912C51.1727 47.2988 63.1405 41.2153 64.3686 33.5518C68.0272 31.9299 70.9562 29.9089 72.8407 27.6099C72.8354 27.6099 72.8354 27.6099 72.8354 27.6099C79.3442 30.2554 83.3125 34.0347 83.3125 37.625C83.3125 43.9764 71.1716 51.0625 53.75 51.0625ZM48.7425 20.0409C48.7425 19.474 48.291 19.0382 47.3882 18.7495C46.4854 18.4556 44.4749 18.0776 41.3623 17.6261C38.5646 17.2324 36.3756 16.8387 34.8009 16.4504C33.2262 16.062 31.9455 15.5159 30.9639 14.8231C29.9823 14.1196 29.4889 13.3008 29.4889 12.3769C29.4889 11.1592 30.3708 10.0568 32.124 9.08056C33.8773 8.10953 36.6382 7.51627 40.4071 7.29589V5.375H45.4987V7.29623C51.1886 7.57976 54.8735 8.89193 56.5479 11.2541L49.5352 12.4299C48.1652 10.8132 46.055 10.0047 43.1891 10.0047C41.7508 10.0047 40.596 10.1833 39.73 10.5506C38.8586 10.9076 38.423 11.3485 38.423 11.863C38.423 12.3879 38.8429 12.7868 39.6828 13.0703C40.5174 13.3485 42.3179 13.6898 45.0684 14.1097C48.0918 14.5612 50.4644 14.9863 52.1808 15.3905C53.9025 15.7894 55.2725 16.3459 56.3013 17.0544C57.3249 17.763 57.8392 18.5923 57.8392 19.5371C57.8392 20.9964 56.7788 22.2036 54.6636 23.1746C52.5484 24.1457 49.4933 24.7179 45.4987 24.8911V27.3789H40.4071V24.9014C33.7461 24.6232 29.6255 23.0327 28.0352 20.1457L35.9087 19.3058C36.6384 21.1221 39.0529 22.0301 43.1524 22.0301C45.0682 22.0301 46.4855 21.8359 47.3884 21.4474C48.2912 21.0589 48.7425 20.592 48.7425 20.0409Z"
          fill="white"/>
</svg>
