<svg width="32" height="35" viewBox="0 0 32 35" fill="none" xmlns="http://www.w3.org/2000/svg">
    <path fill-rule="evenodd" clip-rule="evenodd"
          d="M30.775 8.983L26.977 15.867C27.754 16.036 28.358 16.754 28.358 17.557V22.498H29.092C29.48 22.498 29.782 22.794 29.782 23.174V28.2C29.782 28.58 29.48 28.875 29.092 28.875H28.358V33.268C28.358 34.239 27.581 34.999 26.588 34.999H1.769C0.777 34.999 0 34.239 0 33.268V14.474C0 13.502 0.777 12.742 1.769 12.742H9.539L15.927 1.128C16.488 0.114998 17.912 -0.308003 18.948 0.240997L29.869 6.027C30.948 6.618 31.336 7.928 30.775 8.983ZM28.315 27.524H28.358V23.849H24.257C24.167 23.847 24.0775 23.863 23.9938 23.8961C23.9101 23.9292 23.8339 23.9787 23.7696 24.0417C23.7053 24.1047 23.6543 24.1799 23.6195 24.2629C23.5847 24.3459 23.5668 24.435 23.567 24.525V26.848C23.567 27.228 23.869 27.524 24.257 27.524H28.315ZM1.338 33.268C1.338 33.479 1.51 33.648 1.726 33.648H26.545C26.5955 33.6488 26.6458 33.6396 26.6927 33.6209C26.7397 33.6022 26.7825 33.5743 26.8186 33.539C26.8548 33.5037 26.8836 33.4616 26.9034 33.415C26.9232 33.3685 26.9336 33.3186 26.934 33.268V28.875H24.257C23.135 28.875 22.186 27.988 22.186 26.848V24.525C22.186 23.427 23.092 22.498 24.257 22.498H26.89V17.557C26.8897 17.5065 26.8795 17.4565 26.8598 17.41C26.8401 17.3635 26.8114 17.3214 26.7753 17.286C26.7392 17.2507 26.6965 17.2229 26.6496 17.2041C26.6027 17.1854 26.5525 17.1762 26.502 17.177H1.726C1.6755 17.1762 1.62534 17.1854 1.57843 17.2041C1.53152 17.2229 1.48879 17.2507 1.45271 17.286C1.41663 17.3214 1.38791 17.3635 1.36822 17.41C1.34853 17.4565 1.33826 17.5065 1.338 17.557V33.268ZM1.726 14.093C1.51 14.093 1.338 14.305 1.338 14.431V15.825C1.467 15.783 1.597 15.783 1.726 15.783H7.812L8.762 14.093H1.726ZM18.301 1.423C17.912 1.212 17.394 1.381 17.179 1.761L9.409 15.825H11.783L19.38 2.015L18.301 1.423ZM20.632 2.69L13.337 15.825H15.279L22.099 3.451L20.632 2.69ZM29.178 7.252L23.308 4.126L16.833 15.825H25.38L29.523 8.307C29.739 7.928 29.61 7.421 29.178 7.252ZM27.236 10.926C26.89 11.475 26.286 11.855 25.596 11.855C25.2959 11.8501 25.0006 11.778 24.732 11.644L24.387 11.475C24.1702 11.3724 23.9774 11.2254 23.8212 11.0435C23.6649 10.8615 23.5487 10.6488 23.48 10.419C23.308 9.954 23.394 9.448 23.61 9.025L24.042 8.223C24.516 7.378 25.682 7.04 26.545 7.505L26.89 7.674C27.754 8.139 28.099 9.237 27.667 10.123L27.236 10.926ZM26.243 8.815L25.898 8.645C25.811 8.603 25.768 8.603 25.682 8.603C25.509 8.603 25.337 8.73 25.25 8.856L24.819 9.659C24.732 9.743 24.732 9.87 24.775 9.997C24.819 10.081 24.905 10.208 24.991 10.25L25.337 10.462C25.4465 10.52 25.5738 10.5347 25.6937 10.5032C25.8135 10.4717 25.9171 10.3963 25.984 10.292L26.416 9.49C26.4547 9.37272 26.459 9.2468 26.4283 9.12717C26.3977 9.00754 26.3333 8.8992 26.243 8.815Z"
          fill="url(#paint0_linear)"/>
    <defs>
        <linearGradient id="paint0_linear" x1="0" y1="34.999" x2="0" y2="-0.000976562" gradientUnits="userSpaceOnUse">
            <stop stop-color="@secondary"/>
            <stop offset="1" stop-color="#00B699"/>
        </linearGradient>
    </defs>
</svg>
