<svg width="79" height="82" viewBox="0 0 79 82" fill="none" xmlns="http://www.w3.org/2000/svg">
    <path d="M64.857 55.126C65.0681 56.7162 64.5932 57.4053 64.0655 57.4053C63.5377 57.4053 62.7989 56.7692 62.0074 55.4971C61.2158 54.2249 60.8991 52.7938 61.3213 52.0517C61.5852 51.5747 62.1129 51.3626 62.8517 51.6277C64.171 52.1047 64.6987 54.1719 64.857 55.126ZM57.3634 58.6244C58.9993 60.0026 59.4743 61.6458 58.6299 62.7589C58.155 63.395 57.3634 63.713 56.4663 63.713C55.5691 63.713 54.6192 63.395 53.986 62.8119C52.5084 61.5397 52.0862 59.4195 53.0361 58.2534C53.4055 57.7763 54.0387 57.5113 54.7248 57.5113C55.6219 57.5643 56.5718 57.9354 57.3634 58.6244ZM54.672 71.8759C61.6379 71.8759 69.1844 74.2611 77.5224 81.735C78.3667 82.477 79.475 81.576 78.7361 80.6218C70.5037 70.1797 62.9045 68.2185 55.3581 66.5223C46.1229 64.4551 41.3206 59.2605 37.996 53.4829C37.31 52.3167 37.0461 52.5288 36.9933 54.0129C36.9405 55.8151 37.0461 58.2004 37.4683 60.5326H36.3601C23.1142 60.5326 12.3487 49.7195 12.3487 36.415C12.3487 23.1105 23.1142 12.2973 36.3601 12.2973C49.6059 12.2973 60.3714 23.1105 60.3714 36.415C60.3714 37.3691 60.3186 38.3232 60.2131 39.2243C58.4716 38.9063 54.9886 38.8533 52.5611 39.0653C51.664 39.1183 51.7695 39.5953 52.4556 39.7014C60.3714 41.1325 65.8597 46.0621 67.0735 55.073C67.1263 55.2851 67.3901 55.3381 67.4957 55.1791C70.7675 49.7195 72.6146 43.3058 72.6146 36.468C72.6146 16.3258 56.3607 0 36.3073 0C16.2538 0 0 16.2728 0 36.415C0 56.5572 16.2538 72.883 36.3073 72.883C41.6373 72.936 46.9145 71.8759 54.672 71.8759Z"
          fill="#FF8C00"/>
</svg>
