<svg width="74" height="86" viewBox="0 0 74 86" fill="none" xmlns="http://www.w3.org/2000/svg">
    <path d="M73.2865 79.295L71.4548 73.9099C68.0156 63.7801 58.7022 56.8766 48.0915 56.4236C47.1576 57.1492 46.1731 57.7727 45.1528 58.3178C43.6316 62.3122 38.5206 63.3943 35.5261 60.3353C31.9835 60.0223 28.7401 58.6229 25.9076 56.4238C15.297 56.8753 5.98606 63.7788 2.54429 73.91L0.715743 79.295C0.187127 80.844 0.441713 82.551 1.39524 83.8806C2.3457 85.2114 3.88366 86 5.51938 86H68.4803C70.1157 86 71.6538 85.2115 72.6044 83.8806C73.5576 82.551 73.812 80.844 73.2865 79.295Z"
          fill="white"/>
    <path d="M44.0093 52.3248C50.169 47.9953 54.4773 38.4341 54.4773 29.1905C54.4773 2.92051 19.5244 2.94841 19.5244 29.1905C19.5244 40.4249 25.8854 52.1109 34.2065 54.3171C35.0087 52.0438 37.156 50.3998 39.7006 50.3998C41.4117 50.3996 42.9383 51.1502 44.0093 52.3248Z"
          fill="white"/>
    <path d="M11.8551 40.1579C12.7217 43.5618 17.4445 42.6252 17.4445 39.4728C17.4445 26.8375 18.0484 25.6576 16.3568 24.2862C20.2291 0.425068 53.5857 0.604035 57.6456 24.2889C55.9566 25.6647 56.5608 26.8389 56.5608 39.4728C56.5608 40.4611 57.0919 41.2903 57.8552 41.8047C57.8552 51.6342 53.868 51.0595 41.8786 54.2373C40.025 52.2254 36.7143 53.5353 36.7143 56.2489C36.7143 59.6475 41.5851 60.4428 42.5302 57.0264C52.2098 54.4596 60.7181 53.6502 60.7181 43.9759V41.9905C61.4366 41.6186 61.9455 40.9591 62.1496 40.1579C71.48 39.9677 71.4829 25.9848 62.1496 25.7947C61.9566 25.0313 61.4815 24.4078 60.8131 24.0275C61.0537 21.1644 60.4639 17.4009 58.8224 13.7676C47.4065 -9.78878 13.6891 -0.57185 13.161 22.2577C13.0883 23.0308 13.147 23.5788 13.1916 24.0275C12.5233 24.4078 12.0481 25.0313 11.8551 25.7947C7.94634 25.8701 4.79517 29.0506 4.79517 32.9763C4.79517 36.9019 7.94634 40.0822 11.8551 40.1579Z"
          fill="white"/>
</svg>
